<mxfile host="app.diagrams.net" agent="Mozilla/5.0 (Windows NT 10.0; Win64; x64) AppleWebKit/537.36 (KHTML, like Gecko) Chrome/128.0.0.0 Safari/537.36 OPR/114.0.0.0" version="24.8.6">
  <diagram name="Page-1" id="iw1FY702mmSKxRWAIdKs">
    <mxGraphModel dx="1639" dy="909" grid="1" gridSize="10" guides="1" tooltips="1" connect="1" arrows="1" fold="1" page="1" pageScale="1" pageWidth="850" pageHeight="1100" math="0" shadow="0">
      <root>
        <mxCell id="0" />
        <mxCell id="1" parent="0" />
        <mxCell id="Iak_mKtP0XjoblMqeqkP-1" value="ILibraryItem (Interface)" style="swimlane;fontStyle=0;align=center;verticalAlign=top;childLayout=stackLayout;horizontal=1;startSize=26;horizontalStack=0;resizeParent=1;resizeLast=0;collapsible=1;marginBottom=0;rounded=0;shadow=0;strokeWidth=1;" vertex="1" parent="1">
          <mxGeometry x="500" y="170" width="160" height="80" as="geometry">
            <mxRectangle x="130" y="380" width="160" height="26" as="alternateBounds" />
          </mxGeometry>
        </mxCell>
        <mxCell id="Iak_mKtP0XjoblMqeqkP-2" value="" style="line;html=1;strokeWidth=1;align=left;verticalAlign=middle;spacingTop=-1;spacingLeft=3;spacingRight=3;rotatable=0;labelPosition=right;points=[];portConstraint=eastwest;" vertex="1" parent="Iak_mKtP0XjoblMqeqkP-1">
          <mxGeometry y="26" width="160" height="24" as="geometry" />
        </mxCell>
        <mxCell id="Iak_mKtP0XjoblMqeqkP-3" value="+ GetDetails() : string" style="text;align=left;verticalAlign=top;spacingLeft=4;spacingRight=4;overflow=hidden;rotatable=0;points=[[0,0.5],[1,0.5]];portConstraint=eastwest;" vertex="1" parent="Iak_mKtP0XjoblMqeqkP-1">
          <mxGeometry y="50" width="160" height="26" as="geometry" />
        </mxCell>
        <mxCell id="Iak_mKtP0XjoblMqeqkP-4" value="Book" style="swimlane;fontStyle=0;align=center;verticalAlign=top;childLayout=stackLayout;horizontal=1;startSize=26;horizontalStack=0;resizeParent=1;resizeLast=0;collapsible=1;marginBottom=0;rounded=0;shadow=0;strokeWidth=1;" vertex="1" parent="1">
          <mxGeometry x="330" y="320" width="160" height="290" as="geometry">
            <mxRectangle x="130" y="380" width="160" height="26" as="alternateBounds" />
          </mxGeometry>
        </mxCell>
        <mxCell id="Iak_mKtP0XjoblMqeqkP-5" value="+ Title : string" style="text;align=left;verticalAlign=top;spacingLeft=4;spacingRight=4;overflow=hidden;rotatable=0;points=[[0,0.5],[1,0.5]];portConstraint=eastwest;" vertex="1" parent="Iak_mKtP0XjoblMqeqkP-4">
          <mxGeometry y="26" width="160" height="26" as="geometry" />
        </mxCell>
        <mxCell id="Iak_mKtP0XjoblMqeqkP-6" value="+ Author : string" style="text;align=left;verticalAlign=top;spacingLeft=4;spacingRight=4;overflow=hidden;rotatable=0;points=[[0,0.5],[1,0.5]];portConstraint=eastwest;" vertex="1" parent="Iak_mKtP0XjoblMqeqkP-4">
          <mxGeometry y="52" width="160" height="26" as="geometry" />
        </mxCell>
        <mxCell id="Iak_mKtP0XjoblMqeqkP-7" value="+ ISBN : string" style="text;align=left;verticalAlign=top;spacingLeft=4;spacingRight=4;overflow=hidden;rotatable=0;points=[[0,0.5],[1,0.5]];portConstraint=eastwest;" vertex="1" parent="Iak_mKtP0XjoblMqeqkP-4">
          <mxGeometry y="78" width="160" height="26" as="geometry" />
        </mxCell>
        <mxCell id="Iak_mKtP0XjoblMqeqkP-8" value="+ TotalCopies : int" style="text;align=left;verticalAlign=top;spacingLeft=4;spacingRight=4;overflow=hidden;rotatable=0;points=[[0,0.5],[1,0.5]];portConstraint=eastwest;" vertex="1" parent="Iak_mKtP0XjoblMqeqkP-4">
          <mxGeometry y="104" width="160" height="26" as="geometry" />
        </mxCell>
        <mxCell id="Iak_mKtP0XjoblMqeqkP-9" value="+ AvailableCopies : int" style="text;align=left;verticalAlign=top;spacingLeft=4;spacingRight=4;overflow=hidden;rotatable=0;points=[[0,0.5],[1,0.5]];portConstraint=eastwest;" vertex="1" parent="Iak_mKtP0XjoblMqeqkP-4">
          <mxGeometry y="130" width="160" height="26" as="geometry" />
        </mxCell>
        <mxCell id="Iak_mKtP0XjoblMqeqkP-10" value="" style="line;html=1;strokeWidth=1;align=left;verticalAlign=middle;spacingTop=-1;spacingLeft=3;spacingRight=3;rotatable=0;labelPosition=right;points=[];portConstraint=eastwest;" vertex="1" parent="Iak_mKtP0XjoblMqeqkP-4">
          <mxGeometry y="156" width="160" height="24" as="geometry" />
        </mxCell>
        <mxCell id="Iak_mKtP0XjoblMqeqkP-11" value="+ IsAvailable : bool" style="text;align=left;verticalAlign=top;spacingLeft=4;spacingRight=4;overflow=hidden;rotatable=0;points=[[0,0.5],[1,0.5]];portConstraint=eastwest;" vertex="1" parent="Iak_mKtP0XjoblMqeqkP-4">
          <mxGeometry y="180" width="160" height="26" as="geometry" />
        </mxCell>
        <mxCell id="Iak_mKtP0XjoblMqeqkP-55" value="+ BorrowCopy() : void" style="text;align=left;verticalAlign=top;spacingLeft=4;spacingRight=4;overflow=hidden;rotatable=0;points=[[0,0.5],[1,0.5]];portConstraint=eastwest;" vertex="1" parent="Iak_mKtP0XjoblMqeqkP-4">
          <mxGeometry y="206" width="160" height="26" as="geometry" />
        </mxCell>
        <mxCell id="Iak_mKtP0XjoblMqeqkP-12" value="+ ReturnCopy() : void" style="text;align=left;verticalAlign=top;spacingLeft=4;spacingRight=4;overflow=hidden;rotatable=0;points=[[0,0.5],[1,0.5]];portConstraint=eastwest;" vertex="1" parent="Iak_mKtP0XjoblMqeqkP-4">
          <mxGeometry y="232" width="160" height="26" as="geometry" />
        </mxCell>
        <mxCell id="Iak_mKtP0XjoblMqeqkP-13" value="+ GetDetails() : string" style="text;align=left;verticalAlign=top;spacingLeft=4;spacingRight=4;overflow=hidden;rotatable=0;points=[[0,0.5],[1,0.5]];portConstraint=eastwest;" vertex="1" parent="Iak_mKtP0XjoblMqeqkP-4">
          <mxGeometry y="258" width="160" height="26" as="geometry" />
        </mxCell>
        <mxCell id="Iak_mKtP0XjoblMqeqkP-14" value="BookCategory" style="swimlane;fontStyle=0;align=center;verticalAlign=top;childLayout=stackLayout;horizontal=1;startSize=26;horizontalStack=0;resizeParent=1;resizeLast=0;collapsible=1;marginBottom=0;rounded=0;shadow=0;strokeWidth=1;" vertex="1" parent="1">
          <mxGeometry x="640" y="320" width="300" height="270" as="geometry">
            <mxRectangle x="130" y="380" width="160" height="26" as="alternateBounds" />
          </mxGeometry>
        </mxCell>
        <mxCell id="Iak_mKtP0XjoblMqeqkP-15" value="+ Name : string" style="text;align=left;verticalAlign=top;spacingLeft=4;spacingRight=4;overflow=hidden;rotatable=0;points=[[0,0.5],[1,0.5]];portConstraint=eastwest;" vertex="1" parent="Iak_mKtP0XjoblMqeqkP-14">
          <mxGeometry y="26" width="300" height="26" as="geometry" />
        </mxCell>
        <mxCell id="Iak_mKtP0XjoblMqeqkP-16" value="- availableBooks : List&lt;Book&gt;" style="text;align=left;verticalAlign=top;spacingLeft=4;spacingRight=4;overflow=hidden;rotatable=0;points=[[0,0.5],[1,0.5]];portConstraint=eastwest;" vertex="1" parent="Iak_mKtP0XjoblMqeqkP-14">
          <mxGeometry y="52" width="300" height="26" as="geometry" />
        </mxCell>
        <mxCell id="Iak_mKtP0XjoblMqeqkP-17" value="- notAvailableBooks : List&lt;Book&gt;" style="text;align=left;verticalAlign=top;spacingLeft=4;spacingRight=4;overflow=hidden;rotatable=0;points=[[0,0.5],[1,0.5]];portConstraint=eastwest;" vertex="1" parent="Iak_mKtP0XjoblMqeqkP-14">
          <mxGeometry y="78" width="300" height="26" as="geometry" />
        </mxCell>
        <mxCell id="Iak_mKtP0XjoblMqeqkP-18" value="" style="line;html=1;strokeWidth=1;align=left;verticalAlign=middle;spacingTop=-1;spacingLeft=3;spacingRight=3;rotatable=0;labelPosition=right;points=[];portConstraint=eastwest;" vertex="1" parent="Iak_mKtP0XjoblMqeqkP-14">
          <mxGeometry y="104" width="300" height="24" as="geometry" />
        </mxCell>
        <mxCell id="Iak_mKtP0XjoblMqeqkP-19" value="+ AddBook(book : Book) : void" style="text;align=left;verticalAlign=top;spacingLeft=4;spacingRight=4;overflow=hidden;rotatable=0;points=[[0,0.5],[1,0.5]];portConstraint=eastwest;" vertex="1" parent="Iak_mKtP0XjoblMqeqkP-14">
          <mxGeometry y="128" width="300" height="26" as="geometry" />
        </mxCell>
        <mxCell id="Iak_mKtP0XjoblMqeqkP-20" value="+ RemoveBook(book : Book) : void" style="text;align=left;verticalAlign=top;spacingLeft=4;spacingRight=4;overflow=hidden;rotatable=0;points=[[0,0.5],[1,0.5]];portConstraint=eastwest;" vertex="1" parent="Iak_mKtP0XjoblMqeqkP-14">
          <mxGeometry y="154" width="300" height="26" as="geometry" />
        </mxCell>
        <mxCell id="Iak_mKtP0XjoblMqeqkP-21" value="+ UpdateBookStatus(book : Book) : void" style="text;align=left;verticalAlign=top;spacingLeft=4;spacingRight=4;overflow=hidden;rotatable=0;points=[[0,0.5],[1,0.5]];portConstraint=eastwest;" vertex="1" parent="Iak_mKtP0XjoblMqeqkP-14">
          <mxGeometry y="180" width="300" height="26" as="geometry" />
        </mxCell>
        <mxCell id="Iak_mKtP0XjoblMqeqkP-56" value="+ SearchBooks(searchTerm : string) : List&lt;Book&gt;" style="text;align=left;verticalAlign=top;spacingLeft=4;spacingRight=4;overflow=hidden;rotatable=0;points=[[0,0.5],[1,0.5]];portConstraint=eastwest;" vertex="1" parent="Iak_mKtP0XjoblMqeqkP-14">
          <mxGeometry y="206" width="300" height="26" as="geometry" />
        </mxCell>
        <mxCell id="Iak_mKtP0XjoblMqeqkP-22" value="+ GetDetails() : string" style="text;align=left;verticalAlign=top;spacingLeft=4;spacingRight=4;overflow=hidden;rotatable=0;points=[[0,0.5],[1,0.5]];portConstraint=eastwest;" vertex="1" parent="Iak_mKtP0XjoblMqeqkP-14">
          <mxGeometry y="232" width="300" height="38" as="geometry" />
        </mxCell>
        <mxCell id="Iak_mKtP0XjoblMqeqkP-23" value="Reader" style="swimlane;fontStyle=0;align=center;verticalAlign=top;childLayout=stackLayout;horizontal=1;startSize=26;horizontalStack=0;resizeParent=1;resizeLast=0;collapsible=1;marginBottom=0;rounded=0;shadow=0;strokeWidth=1;" vertex="1" parent="1">
          <mxGeometry x="870" y="690" width="340" height="240" as="geometry">
            <mxRectangle x="130" y="380" width="160" height="26" as="alternateBounds" />
          </mxGeometry>
        </mxCell>
        <mxCell id="Iak_mKtP0XjoblMqeqkP-24" value="+ Id : int" style="text;align=left;verticalAlign=top;spacingLeft=4;spacingRight=4;overflow=hidden;rotatable=0;points=[[0,0.5],[1,0.5]];portConstraint=eastwest;" vertex="1" parent="Iak_mKtP0XjoblMqeqkP-23">
          <mxGeometry y="26" width="340" height="26" as="geometry" />
        </mxCell>
        <mxCell id="Iak_mKtP0XjoblMqeqkP-25" value="+ Name : string" style="text;align=left;verticalAlign=top;spacingLeft=4;spacingRight=4;overflow=hidden;rotatable=0;points=[[0,0.5],[1,0.5]];portConstraint=eastwest;" vertex="1" parent="Iak_mKtP0XjoblMqeqkP-23">
          <mxGeometry y="52" width="340" height="26" as="geometry" />
        </mxCell>
        <mxCell id="Iak_mKtP0XjoblMqeqkP-26" value="+ Email : string" style="text;align=left;verticalAlign=top;spacingLeft=4;spacingRight=4;overflow=hidden;rotatable=0;points=[[0,0.5],[1,0.5]];portConstraint=eastwest;" vertex="1" parent="Iak_mKtP0XjoblMqeqkP-23">
          <mxGeometry y="78" width="340" height="26" as="geometry" />
        </mxCell>
        <mxCell id="Iak_mKtP0XjoblMqeqkP-57" value="+ MaxBooksAllowed : int" style="text;align=left;verticalAlign=top;spacingLeft=4;spacingRight=4;overflow=hidden;rotatable=0;points=[[0,0.5],[1,0.5]];portConstraint=eastwest;" vertex="1" parent="Iak_mKtP0XjoblMqeqkP-23">
          <mxGeometry y="104" width="340" height="26" as="geometry" />
        </mxCell>
        <mxCell id="Iak_mKtP0XjoblMqeqkP-58" value="- _booksRentedCount : int" style="text;align=left;verticalAlign=top;spacingLeft=4;spacingRight=4;overflow=hidden;rotatable=0;points=[[0,0.5],[1,0.5]];portConstraint=eastwest;" vertex="1" parent="Iak_mKtP0XjoblMqeqkP-23">
          <mxGeometry y="130" width="340" height="26" as="geometry" />
        </mxCell>
        <mxCell id="Iak_mKtP0XjoblMqeqkP-27" value="" style="line;html=1;strokeWidth=1;align=left;verticalAlign=middle;spacingTop=-1;spacingLeft=3;spacingRight=3;rotatable=0;labelPosition=right;points=[];portConstraint=eastwest;" vertex="1" parent="Iak_mKtP0XjoblMqeqkP-23">
          <mxGeometry y="156" width="340" height="24" as="geometry" />
        </mxCell>
        <mxCell id="Iak_mKtP0XjoblMqeqkP-28" value="+ BorrowBook(book : Book, category : BookCategory) : void" style="text;align=left;verticalAlign=top;spacingLeft=4;spacingRight=4;overflow=hidden;rotatable=0;points=[[0,0.5],[1,0.5]];portConstraint=eastwest;" vertex="1" parent="Iak_mKtP0XjoblMqeqkP-23">
          <mxGeometry y="180" width="340" height="26" as="geometry" />
        </mxCell>
        <mxCell id="Iak_mKtP0XjoblMqeqkP-29" value="+ ReturnBook(book : Book, category : BookCategory) : void" style="text;align=left;verticalAlign=top;spacingLeft=4;spacingRight=4;overflow=hidden;rotatable=0;points=[[0,0.5],[1,0.5]];portConstraint=eastwest;" vertex="1" parent="Iak_mKtP0XjoblMqeqkP-23">
          <mxGeometry y="206" width="340" height="26" as="geometry" />
        </mxCell>
        <mxCell id="Iak_mKtP0XjoblMqeqkP-30" value="Librarian" style="swimlane;fontStyle=0;align=center;verticalAlign=top;childLayout=stackLayout;horizontal=1;startSize=26;horizontalStack=0;resizeParent=1;resizeLast=0;collapsible=1;marginBottom=0;rounded=0;shadow=0;strokeWidth=1;" vertex="1" parent="1">
          <mxGeometry x="990" y="320" width="340" height="190" as="geometry">
            <mxRectangle x="130" y="380" width="160" height="26" as="alternateBounds" />
          </mxGeometry>
        </mxCell>
        <mxCell id="Iak_mKtP0XjoblMqeqkP-31" value="+ Id : int" style="text;align=left;verticalAlign=top;spacingLeft=4;spacingRight=4;overflow=hidden;rotatable=0;points=[[0,0.5],[1,0.5]];portConstraint=eastwest;" vertex="1" parent="Iak_mKtP0XjoblMqeqkP-30">
          <mxGeometry y="26" width="340" height="26" as="geometry" />
        </mxCell>
        <mxCell id="Iak_mKtP0XjoblMqeqkP-32" value="+ Name : string" style="text;align=left;verticalAlign=top;spacingLeft=4;spacingRight=4;overflow=hidden;rotatable=0;points=[[0,0.5],[1,0.5]];portConstraint=eastwest;" vertex="1" parent="Iak_mKtP0XjoblMqeqkP-30">
          <mxGeometry y="52" width="340" height="26" as="geometry" />
        </mxCell>
        <mxCell id="Iak_mKtP0XjoblMqeqkP-33" value="+ Position : string" style="text;align=left;verticalAlign=top;spacingLeft=4;spacingRight=4;overflow=hidden;rotatable=0;points=[[0,0.5],[1,0.5]];portConstraint=eastwest;" vertex="1" parent="Iak_mKtP0XjoblMqeqkP-30">
          <mxGeometry y="78" width="340" height="26" as="geometry" />
        </mxCell>
        <mxCell id="Iak_mKtP0XjoblMqeqkP-34" value="" style="line;html=1;strokeWidth=1;align=left;verticalAlign=middle;spacingTop=-1;spacingLeft=3;spacingRight=3;rotatable=0;labelPosition=right;points=[];portConstraint=eastwest;" vertex="1" parent="Iak_mKtP0XjoblMqeqkP-30">
          <mxGeometry y="104" width="340" height="24" as="geometry" />
        </mxCell>
        <mxCell id="Iak_mKtP0XjoblMqeqkP-35" value="+ AddBook(book : Book, category : BookCategory) : void" style="text;align=left;verticalAlign=top;spacingLeft=4;spacingRight=4;overflow=hidden;rotatable=0;points=[[0,0.5],[1,0.5]];portConstraint=eastwest;" vertex="1" parent="Iak_mKtP0XjoblMqeqkP-30">
          <mxGeometry y="128" width="340" height="26" as="geometry" />
        </mxCell>
        <mxCell id="Iak_mKtP0XjoblMqeqkP-36" value="+ RemoveBook(book : Book, category : BookCategory) : void" style="text;align=left;verticalAlign=top;spacingLeft=4;spacingRight=4;overflow=hidden;rotatable=0;points=[[0,0.5],[1,0.5]];portConstraint=eastwest;" vertex="1" parent="Iak_mKtP0XjoblMqeqkP-30">
          <mxGeometry y="154" width="340" height="26" as="geometry" />
        </mxCell>
        <mxCell id="Iak_mKtP0XjoblMqeqkP-37" value="Loan" style="swimlane;fontStyle=0;align=center;verticalAlign=top;childLayout=stackLayout;horizontal=1;startSize=26;horizontalStack=0;resizeParent=1;resizeLast=0;collapsible=1;marginBottom=0;rounded=0;shadow=0;strokeWidth=1;" vertex="1" parent="1">
          <mxGeometry x="390" y="690" width="340" height="220" as="geometry">
            <mxRectangle x="130" y="380" width="160" height="26" as="alternateBounds" />
          </mxGeometry>
        </mxCell>
        <mxCell id="Iak_mKtP0XjoblMqeqkP-38" value="+ Book : Book" style="text;align=left;verticalAlign=top;spacingLeft=4;spacingRight=4;overflow=hidden;rotatable=0;points=[[0,0.5],[1,0.5]];portConstraint=eastwest;" vertex="1" parent="Iak_mKtP0XjoblMqeqkP-37">
          <mxGeometry y="26" width="340" height="26" as="geometry" />
        </mxCell>
        <mxCell id="Iak_mKtP0XjoblMqeqkP-39" value="+ Reader : Reader" style="text;align=left;verticalAlign=top;spacingLeft=4;spacingRight=4;overflow=hidden;rotatable=0;points=[[0,0.5],[1,0.5]];portConstraint=eastwest;" vertex="1" parent="Iak_mKtP0XjoblMqeqkP-37">
          <mxGeometry y="52" width="340" height="26" as="geometry" />
        </mxCell>
        <mxCell id="Iak_mKtP0XjoblMqeqkP-40" value="+ LoanDate : DateTime" style="text;align=left;verticalAlign=top;spacingLeft=4;spacingRight=4;overflow=hidden;rotatable=0;points=[[0,0.5],[1,0.5]];portConstraint=eastwest;" vertex="1" parent="Iak_mKtP0XjoblMqeqkP-37">
          <mxGeometry y="78" width="340" height="26" as="geometry" />
        </mxCell>
        <mxCell id="Iak_mKtP0XjoblMqeqkP-41" value="+ ReturnDate : DateTime?" style="text;align=left;verticalAlign=top;spacingLeft=4;spacingRight=4;overflow=hidden;rotatable=0;points=[[0,0.5],[1,0.5]];portConstraint=eastwest;" vertex="1" parent="Iak_mKtP0XjoblMqeqkP-37">
          <mxGeometry y="104" width="340" height="26" as="geometry" />
        </mxCell>
        <mxCell id="Iak_mKtP0XjoblMqeqkP-42" value="" style="line;html=1;strokeWidth=1;align=left;verticalAlign=middle;spacingTop=-1;spacingLeft=3;spacingRight=3;rotatable=0;labelPosition=right;points=[];portConstraint=eastwest;" vertex="1" parent="Iak_mKtP0XjoblMqeqkP-37">
          <mxGeometry y="130" width="340" height="24" as="geometry" />
        </mxCell>
        <mxCell id="Iak_mKtP0XjoblMqeqkP-43" value="+ IssueLoan(category : BookCategory) : void" style="text;align=left;verticalAlign=top;spacingLeft=4;spacingRight=4;overflow=hidden;rotatable=0;points=[[0,0.5],[1,0.5]];portConstraint=eastwest;" vertex="1" parent="Iak_mKtP0XjoblMqeqkP-37">
          <mxGeometry y="154" width="340" height="26" as="geometry" />
        </mxCell>
        <mxCell id="Iak_mKtP0XjoblMqeqkP-44" value="+ CompleteLoan(category : BookCategory) : void" style="text;align=left;verticalAlign=top;spacingLeft=4;spacingRight=4;overflow=hidden;rotatable=0;points=[[0,0.5],[1,0.5]];portConstraint=eastwest;" vertex="1" parent="Iak_mKtP0XjoblMqeqkP-37">
          <mxGeometry y="180" width="340" height="26" as="geometry" />
        </mxCell>
        <mxCell id="Iak_mKtP0XjoblMqeqkP-45" value="" style="endArrow=block;dashed=1;endFill=0;endSize=12;html=1;rounded=0;exitX=0.5;exitY=0;exitDx=0;exitDy=0;entryX=0.5;entryY=1;entryDx=0;entryDy=0;" edge="1" parent="1" source="Iak_mKtP0XjoblMqeqkP-4" target="Iak_mKtP0XjoblMqeqkP-1">
          <mxGeometry width="160" relative="1" as="geometry">
            <mxPoint x="480" y="430" as="sourcePoint" />
            <mxPoint x="640" y="430" as="targetPoint" />
            <Array as="points">
              <mxPoint x="410" y="300" />
              <mxPoint x="580" y="300" />
            </Array>
          </mxGeometry>
        </mxCell>
        <mxCell id="Iak_mKtP0XjoblMqeqkP-46" value="" style="endArrow=block;dashed=1;endFill=0;endSize=12;html=1;rounded=0;exitX=0.25;exitY=0;exitDx=0;exitDy=0;entryX=0.5;entryY=1;entryDx=0;entryDy=0;" edge="1" parent="1" source="Iak_mKtP0XjoblMqeqkP-14" target="Iak_mKtP0XjoblMqeqkP-1">
          <mxGeometry width="160" relative="1" as="geometry">
            <mxPoint x="420" y="330" as="sourcePoint" />
            <mxPoint x="540" y="230" as="targetPoint" />
            <Array as="points">
              <mxPoint x="715" y="300" />
              <mxPoint x="580" y="300" />
            </Array>
          </mxGeometry>
        </mxCell>
        <mxCell id="Iak_mKtP0XjoblMqeqkP-47" value="" style="endArrow=none;startArrow=none;endFill=0;startFill=0;endSize=8;html=1;verticalAlign=bottom;labelBackgroundColor=none;strokeWidth=2;rounded=0;entryX=0.25;entryY=1;entryDx=0;entryDy=0;jumpSize=6;exitX=0.25;exitY=1;exitDx=0;exitDy=0;" edge="1" parent="1" source="Iak_mKtP0XjoblMqeqkP-37" target="Iak_mKtP0XjoblMqeqkP-4">
          <mxGeometry width="160" relative="1" as="geometry">
            <mxPoint x="510" y="940" as="sourcePoint" />
            <mxPoint x="370" y="620" as="targetPoint" />
            <Array as="points">
              <mxPoint x="475" y="940" />
              <mxPoint x="370" y="940" />
              <mxPoint x="370" y="620" />
            </Array>
          </mxGeometry>
        </mxCell>
        <mxCell id="Iak_mKtP0XjoblMqeqkP-48" value="" style="endArrow=none;startArrow=none;endFill=0;startFill=0;endSize=8;html=1;verticalAlign=bottom;labelBackgroundColor=none;strokeWidth=2;rounded=0;jumpSize=6;entryX=0.5;entryY=1;entryDx=0;entryDy=0;exitX=0.75;exitY=1;exitDx=0;exitDy=0;" edge="1" parent="1" source="Iak_mKtP0XjoblMqeqkP-37" target="Iak_mKtP0XjoblMqeqkP-23">
          <mxGeometry width="160" relative="1" as="geometry">
            <mxPoint x="660" y="940" as="sourcePoint" />
            <mxPoint x="90" y="630" as="targetPoint" />
            <Array as="points">
              <mxPoint x="645" y="950" />
              <mxPoint x="1040" y="950" />
            </Array>
          </mxGeometry>
        </mxCell>
        <mxCell id="Iak_mKtP0XjoblMqeqkP-49" value="1" style="endArrow=open;html=1;endSize=12;startArrow=diamondThin;startSize=14;startFill=1;edgeStyle=orthogonalEdgeStyle;align=left;verticalAlign=bottom;rounded=0;exitX=0.75;exitY=1;exitDx=0;exitDy=0;entryX=0.25;entryY=1;entryDx=0;entryDy=0;" edge="1" parent="1" source="Iak_mKtP0XjoblMqeqkP-4" target="Iak_mKtP0XjoblMqeqkP-14">
          <mxGeometry x="-1" y="3" relative="1" as="geometry">
            <mxPoint x="510" y="640" as="sourcePoint" />
            <mxPoint x="670" y="640" as="targetPoint" />
            <Array as="points">
              <mxPoint x="450" y="640" />
              <mxPoint x="715" y="640" />
            </Array>
          </mxGeometry>
        </mxCell>
        <mxCell id="Iak_mKtP0XjoblMqeqkP-50" value="" style="endArrow=none;startArrow=none;endFill=0;startFill=0;endSize=8;html=1;verticalAlign=bottom;labelBackgroundColor=none;strokeWidth=2;rounded=0;exitX=0.75;exitY=1;exitDx=0;exitDy=0;entryX=0.5;entryY=1;entryDx=0;entryDy=0;jumpSize=6;" edge="1" parent="1" source="Iak_mKtP0XjoblMqeqkP-14" target="Iak_mKtP0XjoblMqeqkP-30">
          <mxGeometry width="160" relative="1" as="geometry">
            <mxPoint x="950" y="600" as="sourcePoint" />
            <mxPoint x="1175" y="650" as="targetPoint" />
            <Array as="points">
              <mxPoint x="865" y="620" />
              <mxPoint x="1160" y="620" />
            </Array>
          </mxGeometry>
        </mxCell>
        <mxCell id="Iak_mKtP0XjoblMqeqkP-51" value="" style="endArrow=open;html=1;rounded=0;align=center;verticalAlign=bottom;dashed=1;endFill=0;labelBackgroundColor=none;exitX=0.5;exitY=0;exitDx=0;exitDy=0;entryX=0.5;entryY=0;entryDx=0;entryDy=0;" edge="1" parent="1" source="Iak_mKtP0XjoblMqeqkP-23" target="Iak_mKtP0XjoblMqeqkP-37">
          <mxGeometry relative="1" as="geometry">
            <mxPoint x="50" y="220" as="sourcePoint" />
            <mxPoint x="210" y="220" as="targetPoint" />
            <Array as="points">
              <mxPoint x="1040" y="670" />
              <mxPoint x="560" y="670" />
            </Array>
          </mxGeometry>
        </mxCell>
        <mxCell id="Iak_mKtP0XjoblMqeqkP-52" value="Dependency" style="resizable=0;html=1;align=center;verticalAlign=top;labelBackgroundColor=none;" connectable="0" vertex="1" parent="Iak_mKtP0XjoblMqeqkP-51">
          <mxGeometry relative="1" as="geometry" />
        </mxCell>
        <mxCell id="Iak_mKtP0XjoblMqeqkP-53" value="" style="endArrow=open;html=1;rounded=0;align=center;verticalAlign=bottom;dashed=1;endFill=0;labelBackgroundColor=none;entryX=0.75;entryY=0;entryDx=0;entryDy=0;exitX=0.5;exitY=0;exitDx=0;exitDy=0;" edge="1" parent="1" source="Iak_mKtP0XjoblMqeqkP-30" target="Iak_mKtP0XjoblMqeqkP-14">
          <mxGeometry relative="1" as="geometry">
            <mxPoint x="1050" y="270" as="sourcePoint" />
            <mxPoint x="870" y="290" as="targetPoint" />
            <Array as="points">
              <mxPoint x="1160" y="300" />
              <mxPoint x="865" y="300" />
            </Array>
          </mxGeometry>
        </mxCell>
        <mxCell id="Iak_mKtP0XjoblMqeqkP-54" value="Dependency" style="resizable=0;html=1;align=center;verticalAlign=top;labelBackgroundColor=none;" connectable="0" vertex="1" parent="Iak_mKtP0XjoblMqeqkP-53">
          <mxGeometry relative="1" as="geometry">
            <mxPoint y="-30" as="offset" />
          </mxGeometry>
        </mxCell>
      </root>
    </mxGraphModel>
  </diagram>
</mxfile>
